<svg width="20" height="20" fill="none" xmlns="http://www.w3.org/2000/svg"><path d="M19 10a9 9 0 0 1-9 9 9 9 0 0 1-9-9 9 9 0 0 1 9-9 9 9 0 0 1 9 9ZM6.678 6.973a.843.843 0 1 0-.665 1.55l.419.18c.608.26 1.237.453 1.884.573v1.761c0 .151-.025.302-.074.443l-1.009 3.027a.845.845 0 1 0 1.603.534l.858-2.573a.325.325 0 0 1 .619 0l.858 2.573a.845.845 0 1 0 1.603-.534l-1.01-3.027a1.363 1.363 0 0 1-.073-.443V9.28a9.105 9.105 0 0 0 1.884-.573l.419-.18a.843.843 0 1 0-.665-1.55l-.422.176a7.368 7.368 0 0 1-5.814 0l-.419-.179h.004ZM10 6.625a1.406 1.406 0 1 0 0-2.812 1.406 1.406 0 0 0 0 2.812Z" fill="#000"/></svg>