<svg width="20" height="20" viewBox="0 0 20 20" fill="none" xmlns="http://www.w3.org/2000/svg">
<path d="M18.8874 9.42919C18.816 9.24522 18.7089 9.07714 18.5723 8.9346L11.0692 1.44077C10.9293 1.30103 10.7632 1.19018 10.5804 1.11455C10.3975 1.03893 10.2016 1 10.0037 1C9.60412 1 9.22087 1.15855 8.9383 1.44077C8.79838 1.58052 8.6874 1.74642 8.61167 1.929C8.53595 2.11158 8.49698 2.30727 8.49698 2.5049C8.49698 2.90402 8.65573 3.2868 8.9383 3.56902L13.8904 8.49996H2.50062C2.10263 8.49996 1.72094 8.65786 1.43952 8.93894C1.1581 9.22001 1 9.60122 1 9.99872C1 10.3962 1.1581 10.7774 1.43952 11.0585C1.72094 11.3396 2.10263 11.4975 2.50062 11.4975H13.8904L8.9383 16.4284C8.79765 16.5678 8.68601 16.7335 8.60983 16.9162C8.53364 17.0988 8.49442 17.2947 8.49442 17.4925C8.49442 17.6904 8.53364 17.8863 8.60983 18.0689C8.68601 18.2516 8.79765 18.4173 8.9383 18.5567C9.0778 18.6971 9.24377 18.8086 9.42664 18.8847C9.6095 18.9608 9.80564 19 10.0037 19C10.2018 19 10.398 18.9608 10.5808 18.8847C10.7637 18.8086 10.9297 18.6971 11.0692 18.5567L18.5723 11.0628C18.7089 10.9203 18.816 10.7522 18.8874 10.5683C19.0375 10.2034 19.0375 9.79408 18.8874 9.42919Z" fill="black"/>
</svg>
