<svg width="20" height="20" fill="none" xmlns="http://www.w3.org/2000/svg"><path d="M14.242 2.35A6.666 6.666 0 008.675.966 6.667 6.667 0 003.45 6.233a6.725 6.725 0 001.433 5.542c.587.662.923 1.508.95 2.391v2.5a2.5 2.5 0 002.5 2.5h3.334a2.5 2.5 0 002.5-2.5v-2.341a4.308 4.308 0 011.016-2.659 6.666 6.666 0 00-.941-9.333v.017zM12.5 16.666a.833.833 0 01-.833.834H8.333a.833.833 0 01-.833-.834v-.833h5v.833zm1.392-6.033a5.942 5.942 0 00-1.392 3.533h-1.667v-2.5a.834.834 0 00-1.666 0v2.5H7.5A5.417 5.417 0 006.167 10.7a5 5 0 012.825-8.1A5 5 0 0115 7.5a4.908 4.908 0 01-1.108 3.133z" fill="#000"/></svg>