<svg width="20" height="20" viewBox="0 0 20 20" fill="none" xmlns="http://www.w3.org/2000/svg">
<path d="M9.99989 13.3332C9.83507 13.3332 9.67396 13.3821 9.53692 13.4737C9.39988 13.5652 9.29307 13.6954 9.22999 13.8477C9.16692 13.9999 9.15042 14.1675 9.18257 14.3291C9.21473 14.4908 9.29409 14.6393 9.41064 14.7558C9.52718 14.8724 9.67567 14.9517 9.83732 14.9839C9.99897 15.016 10.1665 14.9995 10.3188 14.9365C10.4711 14.8734 10.6012 14.7666 10.6928 14.6295C10.7844 14.4925 10.8332 14.3314 10.8332 14.1666C10.8332 13.9456 10.7454 13.7336 10.5891 13.5773C10.4329 13.421 10.2209 13.3332 9.99989 13.3332ZM18.8916 14.5582L12.1832 2.89157C11.9664 2.50283 11.6497 2.17903 11.2659 1.95362C10.8821 1.72822 10.445 1.60937 9.99989 1.60938C9.55477 1.60937 9.11772 1.72822 8.7339 1.95362C8.35007 2.17903 8.03339 2.50283 7.81656 2.89157L1.14989 14.5582C0.925555 14.9366 0.80501 15.3674 0.800429 15.8073C0.795847 16.2471 0.90739 16.6803 1.1238 17.0633C1.3402 17.4462 1.65381 17.7653 2.03296 17.9883C2.41211 18.2112 2.84338 18.3302 3.28323 18.3332H16.7166C17.1599 18.3376 17.5965 18.224 17.9815 18.004C18.3665 17.784 18.686 17.4656 18.9074 17.0814C19.1287 16.6972 19.2439 16.2611 19.2411 15.8177C19.2384 15.3743 19.1177 14.9396 18.8916 14.5582ZM17.4499 16.2249C17.3768 16.3549 17.2703 16.4628 17.1413 16.5376C17.0123 16.6123 16.8656 16.6511 16.7166 16.6499H3.28323C3.13415 16.6511 2.98747 16.6123 2.85849 16.5376C2.72951 16.4628 2.62294 16.3549 2.54989 16.2249C2.47675 16.0982 2.43825 15.9545 2.43825 15.8082C2.43825 15.662 2.47675 15.5182 2.54989 15.3916L9.21656 3.7249C9.28649 3.5884 9.39274 3.47385 9.5236 3.39385C9.65446 3.31386 9.80485 3.27153 9.95823 3.27153C10.1116 3.27153 10.262 3.31386 10.3929 3.39385C10.5237 3.47385 10.63 3.5884 10.6999 3.7249L17.4082 15.3916C17.4909 15.5164 17.5384 15.6613 17.5457 15.8108C17.5531 15.9604 17.52 16.1092 17.4499 16.2416V16.2249ZM9.99989 6.66657C9.77888 6.66657 9.56692 6.75436 9.41064 6.91065C9.25436 7.06693 9.16656 7.27889 9.16656 7.4999V10.8332C9.16656 11.0542 9.25436 11.2662 9.41064 11.4225C9.56692 11.5788 9.77888 11.6666 9.99989 11.6666C10.2209 11.6666 10.4329 11.5788 10.5891 11.4225C10.7454 11.2662 10.8332 11.0542 10.8332 10.8332V7.4999C10.8332 7.27889 10.7454 7.06693 10.5891 6.91065C10.4329 6.75436 10.2209 6.66657 9.99989 6.66657Z" fill="black"/>
</svg>
