<svg width="20" height="20" fill="none" xmlns="http://www.w3.org/2000/svg"><path d="M5.966 2.264a7.133 7.133 0 011.678.836 8.921 8.921 0 012.25-.285c.785 0 1.541.1 2.25.284a7.132 7.132 0 011.677-.835c.55-.19 1.334-.497 1.8.025.316.355.394.95.45 1.403.064.507.078 1.168-.087 1.823C16.618 6.343 17 7.332 17 8.409c0 1.633-.873 3.05-2.166 4.03a7.438 7.438 0 01-2.044 1.085c.169.391.263.824.263 1.28V17.2c0 .441-.354.799-.79.799H7.526a.794.794 0 01-.789-.8v-.791c-.754.093-1.386.01-1.924-.22-.562-.242-.954-.616-1.248-.974-.28-.34-.584-1.103-1.025-1.252a.802.802 0 01-.5-1.011.787.787 0 011-.505c.525.177.867.56 1.102.869.378.495.687 1.143 1.287 1.4.247.107.61.177 1.176.098l.132-.027c.002-.449.096-.876.263-1.264a7.436 7.436 0 01-2.045-1.083c-1.292-.982-2.165-2.398-2.165-4.03 0-1.076.381-2.064 1.014-2.892-.167-.656-.152-1.317-.09-1.825l.005-.03c.057-.465.125-1.013.447-1.374.465-.522 1.25-.214 1.8-.025z" fill="#000"/></svg>