<svg width="20" height="20" fill="none" xmlns="http://www.w3.org/2000/svg"><path d="M7.02 15.688c0 .07-.083.127-.188.127-.12.01-.203-.046-.203-.127 0-.07.083-.126.188-.126.11-.01.204.046.204.126Zm-1.128-.158c-.025.07.047.151.156.172.094.036.203 0 .225-.07.022-.07-.047-.151-.156-.183-.094-.024-.2.01-.225.081Zm1.604-.06c-.105.025-.178.092-.167.173.01.07.105.116.214.091.105-.024.178-.091.167-.162-.01-.066-.109-.112-.214-.102ZM9.884 2C4.85 2 1 5.702 1 10.577c0 3.899 2.533 7.235 6.151 8.409.465.08.628-.197.628-.426 0-.218-.01-1.42-.01-2.158 0 0-2.541.527-3.075-1.048 0 0-.413-1.022-1.009-1.286 0 0-.83-.552.059-.541 0 0 .903.07 1.4.906.795 1.357 2.127.967 2.646.735.083-.562.32-.952.58-1.184-2.028-.219-4.075-.503-4.075-3.885 0-.967.276-1.452.857-2.07-.095-.229-.403-1.17.094-2.387.758-.229 2.504.949 2.504.949a8.785 8.785 0 0 1 2.279-.299c.773 0 1.553.102 2.28.299 0 0 1.745-1.181 2.503-.95.497 1.22.189 2.16.095 2.388.58.622.936 1.107.936 2.07 0 3.392-2.138 3.663-4.166 3.884.334.278.617.806.617 1.632 0 1.184-.011 2.65-.011 2.938 0 .229.167.506.628.426C16.54 17.812 19 14.476 19 10.577 19 5.702 14.917 2 9.884 2ZM4.527 14.124c-.047.035-.036.116.026.183.058.056.141.08.189.035.047-.035.036-.116-.026-.183-.058-.056-.141-.08-.189-.035Zm-.392-.285c-.025.046.011.102.084.137.058.036.13.025.156-.024.025-.046-.01-.102-.083-.137-.073-.021-.131-.01-.157.024Zm1.176 1.252c-.058.046-.036.15.047.218.084.08.19.091.236.035.048-.046.026-.151-.047-.218-.08-.08-.189-.091-.236-.035Zm-.413-.517c-.058.035-.058.127 0 .207.058.081.156.116.203.081.058-.045.058-.137 0-.218-.051-.08-.145-.116-.203-.07Z" fill="#000"/></svg>