<svg width="20" height="20" fill="none" xmlns="http://www.w3.org/2000/svg"><path d="M8.91 10.433a.72.72 0 0 1-1.031 0l-1.75-1.781a.753.753 0 0 1 0-1.05l1.75-1.782a.718.718 0 0 1 1.032-.002c.285.29.285.761 0 1.051L7.678 8.125l1.234 1.256a.822.822 0 0 1-.002 1.052Zm7.408 6.102-2.72 2.77a2.323 2.323 0 0 1-1.651.695H5.333C4.045 20 3 18.937 3 17.625V3.375C3 2.064 4.045 1 5.334 1h9.333C15.95 1 17 2.069 17 3.375v11.482c0 .627-.244 1.232-.682 1.678ZM15.25 3.375a.589.589 0 0 0-.583-.594H5.334a.589.589 0 0 0-.583.594L4.75 17.62c0 .328.261.594.583.594h5.834V15.25c0-.656.522-1.188 1.166-1.188h2.884V3.376h.033Zm-4.16 7.058a.753.753 0 0 1 0-1.05l1.232-1.258-1.234-1.256a.753.753 0 0 1 0-1.05.72.72 0 0 1 1.032 0l1.75 1.78c.285.29.285.761 0 1.051l-1.75 1.781a.717.717 0 0 1-1.03.002Z" fill="#000"/></svg>