<svg width="20" height="20" fill="none" xmlns="http://www.w3.org/2000/svg"><path d="M17.071 1H2.93A1.93 1.93 0 0 0 1 2.929V17.07A1.93 1.93 0 0 0 2.929 19H17.07A1.929 1.929 0 0 0 19 17.071V2.93A1.93 1.93 0 0 0 17.071 1Zm-6.276 14.038c0 1.752-1.028 2.552-2.527 2.552-1.354 0-2.137-.7-2.539-1.547l1.378-.832c.265.47.506.868 1.089.868.554 0 .908-.217.908-1.065v-5.75h1.692v5.774Zm4.002 2.552c-1.57 0-2.587-.748-3.081-1.728l1.378-.796c.361.591.836 1.03 1.667 1.03.7 0 1.15-.35 1.15-.837 0-.578-.459-.783-1.234-1.125l-.422-.18c-1.222-.519-2.03-1.174-2.03-2.552 0-1.27.97-2.234 2.476-2.234 1.077 0 1.848.374 2.403 1.354l-1.318.844c-.29-.518-.603-.723-1.09-.723-.493 0-.807.313-.807.723 0 .506.314.711 1.04 1.029l.423.18c1.438.615 2.246 1.246 2.246 2.66 0 1.519-1.198 2.355-2.8 2.355Z" fill="#000"/></svg>