<svg width="20" height="20" fill="none" xmlns="http://www.w3.org/2000/svg"><path d="M15 9.017a.833.833 0 00-.833.833v5.983a.833.833 0 01-.834.833H4.167a.833.833 0 01-.834-.833V6.667a.833.833 0 01.834-.834h5.983a.833.833 0 100-1.667H4.167a2.5 2.5 0 00-2.5 2.5v9.167a2.5 2.5 0 002.5 2.5h9.166a2.5 2.5 0 002.5-2.5V9.85A.833.833 0 0015 9.017zm3.267-6.834a.833.833 0 00-.45-.45.833.833 0 00-.317-.067h-5a.833.833 0 000 1.667h2.992l-8.584 8.575a.832.832 0 000 1.184.833.833 0 001.184 0l8.575-8.584V7.5a.833.833 0 101.666 0v-5a.833.833 0 00-.066-.317z" fill="#0D0C11"/></svg>