<svg width="20" height="20" viewBox="0 0 20 20" fill="none" xmlns="http://www.w3.org/2000/svg">
<path d="M15.8334 3.3335H4.16675C3.50371 3.3335 2.86782 3.59689 2.39898 4.06573C1.93014 4.53457 1.66675 5.17045 1.66675 5.8335V14.1668C1.66675 14.8299 1.93014 15.4658 2.39898 15.9346C2.86782 16.4034 3.50371 16.6668 4.16675 16.6668H15.8334C16.4965 16.6668 17.1323 16.4034 17.6012 15.9346C18.07 15.4658 18.3334 14.8299 18.3334 14.1668V5.8335C18.3334 5.17045 18.07 4.53457 17.6012 4.06573C17.1323 3.59689 16.4965 3.3335 15.8334 3.3335ZM4.16675 5.00016H15.8334C16.0544 5.00016 16.2664 5.08796 16.4227 5.24424C16.5789 5.40052 16.6667 5.61248 16.6667 5.8335L10.0001 9.90016L3.33341 5.8335C3.33341 5.61248 3.42121 5.40052 3.57749 5.24424C3.73377 5.08796 3.94573 5.00016 4.16675 5.00016ZM16.6667 14.1668C16.6667 14.3878 16.5789 14.5998 16.4227 14.7561C16.2664 14.9124 16.0544 15.0002 15.8334 15.0002H4.16675C3.94573 15.0002 3.73377 14.9124 3.57749 14.7561C3.42121 14.5998 3.33341 14.3878 3.33341 14.1668V7.7335L9.56675 11.5418C9.69343 11.615 9.83713 11.6535 9.98341 11.6535C10.1297 11.6535 10.2734 11.615 10.4001 11.5418L16.6667 7.7335V14.1668Z" fill="black"/>
</svg>
