<svg width="20" height="20" fill="none" xmlns="http://www.w3.org/2000/svg"><path fill-rule="evenodd" clip-rule="evenodd" d="M4.052 11.044c.544-1.765 1.524-4.027 3.27-5.873 3.426-3.618 8.405-4.153 8.531-4.166a.83.83 0 01.368.044c.186.066.348.2.454.373.181.288 1.201 2.1-.166 4.289-.068.108-.15.214-.24.317a.965.965 0 01-.027.339c-.165.634-.377 1.299-.652 1.964-.48 1.162-1.157 2.336-2.11 3.344-1.786 1.885-4.129 2.751-5.96 3.155a15.996 15.996 0 01-2.51.347c-.027.228-.269 2.509-.269 2.903 0 .508-.39.92-.87.92C3.39 19 3 18.588 3 18.08c0-.525.101-1.535.193-2.354.178-1.593.388-3.152.859-4.682zm11.003-6.347c.459-.734.452-1.36.361-1.765-1.33.253-4.544 1.091-6.862 3.54-1.483 1.567-2.35 3.532-2.846 5.141-.201.654-.339 1.24-.43 1.702a14.415 14.415 0 001.887-.285c1.671-.37 3.638-1.13 5.083-2.656.74-.781 1.291-1.708 1.701-2.672-.85.478-1.757.907-2.402 1.134-.456.16-.95-.1-1.101-.582-.152-.482.094-1.003.55-1.163.588-.207 1.531-.657 2.398-1.164.43-.252.824-.508 1.133-.743.334-.254.488-.423.528-.487z" fill="#000"/></svg>