<svg width="20" height="20" fill="none" xmlns="http://www.w3.org/2000/svg"><path d="M9.49 13.027c-.01.017-.018.03 0 0Zm7.006-2.404c-.566 0-1.124.128-1.631.373-.166-.328-.338-.616-.366-.831-.034-.252-.07-.4-.03-.7.039-.298.216-.72.213-.75-.003-.031-.04-.183-.402-.186-.363-.003-.675.07-.711.163a3.351 3.351 0 0 0-.15.528c-.064.323-.725 1.478-1.099 2.08-.124-.235-.228-.442-.25-.608-.034-.251-.07-.4-.031-.699.04-.298.216-.72.214-.751-.003-.03-.04-.182-.402-.185-.363-.003-.675.069-.712.163-.037.094-.076.315-.149.528-.073.212-.953 2.135-1.184 2.635-.118.255-.219.459-.292.597l-.025.047c.008-.014.014-.027.014-.022-.062.119-.099.185-.099.185v.003c-.047.088-.1.168-.126.168-.017 0-.054-.232.008-.55.132-.668.445-1.707.442-1.743-.003-.02.059-.199-.206-.295-.255-.092-.348.06-.37.06-.023 0-.04.056-.04.056s.284-1.172-.546-1.172c-.517 0-1.237.558-1.59 1.064-.223.119-.704.376-1.21.65l-.582.314-.04-.041c-1.006-1.056-2.865-1.802-2.786-3.22.028-.516.21-1.872 3.574-3.52 2.756-1.347 4.96-.977 5.339-.154.546 1.174-1.178 3.36-4.04 3.675-1.091.119-1.665-.296-1.808-.45-.15-.164-.172-.172-.228-.141-.093.05-.034.193 0 .279.084.218.436.605 1.035.798.525.169 1.805.263 3.351-.326 1.738-.657 3.09-2.49 2.694-4.023-.404-1.558-3.034-2.07-5.522-1.202-1.481.517-3.084 1.33-4.237 2.388-1.37 1.26-1.588 2.356-1.498 2.815.32 1.627 2.603 2.688 3.517 3.473l-.127.07c-.458.223-2.198 1.118-2.634 2.063-.492 1.072.081 1.84.458 1.945 1.175.32 2.379-.257 3.026-1.204.646-.948.568-2.186.27-2.75-.003-.008-.009-.014-.012-.022l.36-.207c.233-.135.461-.26.66-.367-.112.298-.193.657-.235 1.177-.051.607.205 1.395.537 1.704.146.136.323.138.433.138.388 0 .562-.315.756-.69.24-.459.45-.992.45-.992s-.264 1.442.458 1.442c.265 0 .529-.334.647-.506v.003l.02-.033c.028-.041.042-.066.042-.066v-.008c.107-.18.34-.592.692-1.271.455-.88.891-1.976.891-1.976.042.241.1.48.175.713.078.262.244.55.376.829l-.171.226.003.006c-.085.11-.18.23-.279.345-.36.42-.787.9-.844 1.039-.067.163-.05.285.08.379.095.071.264.082.44.069.324-.022.552-.1.661-.15.203-.07.394-.17.568-.292.352-.255.566-.62.546-1.1-.011-.265-.099-.53-.205-.78.03-.043.064-.09.095-.137.557-.799.987-1.675.987-1.675.042.24.1.479.175.713.067.223.199.47.32.71-.523.417-.847.9-.959 1.218-.208.589-.045.854.262.915.137.027.334-.036.48-.097.218-.071.423-.175.608-.307.351-.254.691-.61.669-1.094a2.026 2.026 0 0 0-.152-.646c.442-.183 1.015-.282 1.746-.2 1.566.18 1.873 1.142 1.814 1.542-.06.401-.388.625-.498.691-.11.066-.143.091-.135.141.014.072.065.07.157.053.13-.023.822-.326.852-1.07.045-.94-.874-1.973-2.503-1.964h.001Zm-12.07 3.998c-.518.556-1.244.766-1.555.589-.335-.191-.203-1.009.435-1.6.388-.36.889-.691 1.22-.896l.321-.19.034-.02c.025-.016.053-.03.081-.047.234.84.009 1.58-.537 2.164Zm3.778-2.525c-.18.434-.56 1.539-.79 1.48-.197-.049-.318-.892-.04-1.72.141-.418.44-.915.617-1.108.284-.313.596-.412.669-.288.098.163-.343 1.365-.456 1.636Zm3.122 1.464c-.076.039-.146.064-.18.045-.025-.014.031-.067.031-.067s.391-.411.546-.6c.09-.11.194-.24.306-.383 0 .014.003.027.003.044-.004.494-.487.829-.707.961h.001Zm2.407-.538c-.056-.04-.048-.169.14-.572.074-.158.242-.423.535-.677a.987.987 0 0 1 .053.298c-.002.622-.455.854-.728.95Z" fill="#000"/></svg>