<svg width="20" height="20" fill="none" xmlns="http://www.w3.org/2000/svg"><g clip-path="url(#clip0_120_1392)" stroke="#0D0C11" stroke-width="1.5" stroke-linecap="round" stroke-linejoin="round"><path d="M6.667 10.833V3.75a1.25 1.25 0 112.5 0V10M9.167 9.583V7.916a1.25 1.25 0 112.5 0V10M11.667 8.75a1.25 1.25 0 112.5 0V10"/><path d="M14.167 9.584a1.25 1.25 0 012.5 0v3.75a5 5 0 01-5 5H10h.173a5 5 0 01-4.176-2.25l-.164-.25c-.26-.4-1.172-1.99-2.738-4.774a1.25 1.25 0 01.447-1.685 1.556 1.556 0 011.9.233l1.225 1.226M2.117 4.662a11.24 11.24 0 012.05-1.19M11.667 2.882a11.2 11.2 0 013.07 1.343"/></g><defs><clipPath id="clip0_120_1392"><path fill="#fff" d="M0 0h20v20H0z"/></clipPath></defs></svg>