<svg width="20" height="20" viewBox="0 0 20 20" fill="none" xmlns="http://www.w3.org/2000/svg">
<g clip-path="url(#clip0_120_1392)">
<path d="M6.66675 10.8333V3.75C6.66675 3.41848 6.79844 3.10054 7.03286 2.86612C7.26728 2.6317 7.58523 2.5 7.91675 2.5C8.24827 2.5 8.56621 2.6317 8.80063 2.86612C9.03505 3.10054 9.16675 3.41848 9.16675 3.75V10" stroke="#0D0C11" stroke-width="1.5" stroke-linecap="round" stroke-linejoin="round"/>
<path d="M9.16675 9.58317V7.9165C9.16675 7.58498 9.29844 7.26704 9.53286 7.03262C9.76728 6.7982 10.0852 6.6665 10.4167 6.6665C10.7483 6.6665 11.0662 6.7982 11.3006 7.03262C11.5351 7.26704 11.6667 7.58498 11.6667 7.9165V9.99984" stroke="#0D0C11" stroke-width="1.5" stroke-linecap="round" stroke-linejoin="round"/>
<path d="M11.6667 8.75C11.6667 8.41848 11.7984 8.10054 12.0329 7.86612C12.2673 7.6317 12.5852 7.5 12.9167 7.5C13.2483 7.5 13.5662 7.6317 13.8006 7.86612C14.0351 8.10054 14.1667 8.41848 14.1667 8.75V10" stroke="#0D0C11" stroke-width="1.5" stroke-linecap="round" stroke-linejoin="round"/>
<path d="M14.1666 9.5835C14.1666 9.25198 14.2983 8.93403 14.5327 8.69961C14.7671 8.46519 15.0851 8.3335 15.4166 8.3335C15.7481 8.3335 16.066 8.46519 16.3005 8.69961C16.5349 8.93403 16.6666 9.25198 16.6666 9.5835V13.3335C16.6666 14.6596 16.1398 15.9313 15.2021 16.869C14.2644 17.8067 12.9927 18.3335 11.6666 18.3335H9.99991H10.1732C9.34519 18.3336 8.53006 18.1281 7.80106 17.7354C7.07206 17.3427 6.45201 16.7751 5.99658 16.0835L5.83324 15.8335C5.57324 15.4343 4.66074 13.8435 3.09491 11.0602C2.93528 10.7764 2.89264 10.4416 2.97606 10.127C3.05948 9.81228 3.26237 9.54256 3.54158 9.37516C3.83897 9.19672 4.18747 9.12276 4.53171 9.16503C4.87595 9.20731 5.19619 9.36339 5.44158 9.6085L6.66658 10.8335" stroke="#0D0C11" stroke-width="1.5" stroke-linecap="round" stroke-linejoin="round"/>
<path d="M2.11743 4.66182C2.75695 4.1943 3.4441 3.79569 4.16743 3.47266" stroke="#0D0C11" stroke-width="1.5" stroke-linecap="round" stroke-linejoin="round"/>
<path d="M11.6667 2.88184C12.7667 3.17684 13.7984 3.6335 14.7376 4.22517" stroke="#0D0C11" stroke-width="1.5" stroke-linecap="round" stroke-linejoin="round"/>
</g>
<defs>
<clipPath id="clip0_120_1392">
<rect width="20" height="20" fill="white"/>
</clipPath>
</defs>
</svg>
