<svg width="20" height="20" fill="none" xmlns="http://www.w3.org/2000/svg"><g clip-path="url(#a)"><path d="M18.156 1H1.844A.844.844 0 0 0 1 1.844v16.312c0 .466.378.844.844.844h16.312a.844.844 0 0 0 .844-.844V1.844A.844.844 0 0 0 18.156 1Z" fill="#000"/><path fill-rule="evenodd" clip-rule="evenodd" d="M12.683 14.112v1.51c.23.126.501.22.814.284.314.063.644.094.991.094.339 0 .66-.035.965-.104.305-.07.571-.183.801-.342.23-.159.411-.367.545-.623.134-.257.201-.574.201-.951 0-.274-.038-.514-.115-.72a1.7 1.7 0 0 0-.33-.55 2.454 2.454 0 0 0-.52-.432 5.404 5.404 0 0 0-.681-.36 8.368 8.368 0 0 1-.5-.24 2.5 2.5 0 0 1-.374-.235 1 1 0 0 1-.239-.255.564.564 0 0 1-.084-.305c0-.103.025-.197.075-.28a.668.668 0 0 1 .212-.215c.091-.06.203-.107.336-.14.132-.033.28-.05.441-.05a2.772 2.772 0 0 1 1.154.264c.125.061.241.13.347.209V9.26a3.268 3.268 0 0 0-.704-.196A5.37 5.37 0 0 0 15.142 9a3.82 3.82 0 0 0-.954.116c-.3.077-.564.197-.792.36a1.764 1.764 0 0 0-.54.626c-.133.253-.2.556-.2.909 0 .45.122.834.365 1.152.242.317.611.586 1.105.807.195.085.376.168.543.25.168.082.313.167.435.255s.219.184.29.288a.615.615 0 0 1 .039.625.611.611 0 0 1-.2.217c-.09.062-.202.11-.336.144-.134.035-.29.052-.47.052-.306 0-.61-.057-.91-.172a2.677 2.677 0 0 1-.834-.517Zm-2.38-3.76h1.848V9.108H7v1.244h1.84v5.54h1.463v-5.54Z" fill="#fff"/></g><defs><clipPath id="a"><path fill="#fff" transform="translate(1 1)" d="M0 0h18v18H0z"/></clipPath></defs></svg>