<svg width="20" height="20" fill="none" xmlns="http://www.w3.org/2000/svg"><path d="M2.395 3.648c-.092.313-.14.639-.139.969v.001a3.34 3.34 0 00.377 1.55c.248.475.607.88 1.043 1.178l1.406.96-1.702-.047a4.068 4.068 0 01-1.071-.175c.113.482.332.935.644 1.321.47.583 1.118.979 1.837 1.125l.049.968a3.96 3.96 0 01-1.033.176c.213.353.49.663.818.912l-.302.399.302-.399c.535.406 1.178.63 1.84.643l1.374.027-1.07.862a7.81 7.81 0 01-3.8 1.655c1.17.48 2.422.728 3.692.726h.006v0a9.72 9.72 0 003.846-.75 9.916 9.916 0 003.266-2.217 10.198 10.198 0 002.177-3.342c.502-1.252.755-2.594.745-3.948v-.008 0-.002 0-.002 0-.002 0-.006 0-.002 0-.002 0-.002 0-.006 0-.002 0-.002 0-.002 0-.006 0-.002 0-.002 0-.002 0-.007 0-.002 0-.002 0-.002 0-.008 0-.002 0-.002 0-.002 0-.008 0-.002 0-.002 0-.002 0-.008 0-.002 0-.002 0-.002 0-.002 0-.008 0-.002 0-.002 0-.002 0V6.11v0-.002 0-.002 0-.002 0-.002 0V6.094v0-.002 0-.002 0-.002 0-.002 0V6.077v0-.002 0-.002 0-.002 0-.002 0V6.057v0-.002 0-.002 0-.002 0-.002 0-.002 0V6.038v0-.002 0-.002 0-.002 0-.002 0-.002 0V6.017v0-.002 0-.002 0-.002 0-.002 0-.002 0V5.993v0-.002 0-.002 0-.002 0-.002 0-.002 0V5.97v0-.002 0-.002 0-.002 0-.002 0-.002 0-.002 0V5.945v0-.002 0-.002 0-.002 0-.002 0-.002 0-.002 0V5.916v0-.002 0-.002 0-.002 0-.002 0-.002 0-.002 0V5.887v0-.002 0-.002 0-.002 0-.002 0-.002 0-.002 0-.002 0V5.858v0-.002 0-.002 0-.002 0-.002 0-.002 0-.002 0-.002 0V5.825v0-.002 0-.002 0-.002 0-.002 0-.002 0-.002 0-.002 0-.002 0V5.792v0-.002 0-.002 0-.002 0-.002 0-.002 0-.002 0-.002 0V5.757v0-.002 0-.002 0-.002 0-.249l.197-.15c.231-.177.452-.368.66-.572M2.395 3.648l16.06.894a8 8 0 01-.898.24M2.395 3.647a11 11 0 003.017 2.31A10.787 10.787 0 009.83 7.162l.665.034-.152-.648a3.36 3.36 0 01.192-2.116l-.458-.201.458.2a3.243 3.243 0 011.41-1.547 3.116 3.116 0 012.028-.338c.694.12 1.332.473 1.811 1.005l.191.212.28-.056c.346-.07.686-.163 1.018-.28m-14.878.22l14.878-.22m.284 1.354a7.984 7.984 0 01-.62.102l-.322-.923c.243-.148.463-.327.658-.532m.284 1.353l-.284-1.353M1.945 15.85A10.217 10.217 0 006.66 17c1.386.014 2.76-.254 4.044-.79a10.418 10.418 0 003.43-2.328 10.699 10.699 0 002.284-3.506A10.9 10.9 0 0017.2 6.24L1.945 15.85z" fill="#000" stroke="#000"/></svg>