<svg width="20" height="20" fill="none" xmlns="http://www.w3.org/2000/svg"><path d="M10 2c-4.96 0-9 3.811-9 8.5 0 4.685 4.04 8.5 9 8.5s9-3.815 9-8.5C19 5.811 14.96 2 10 2Zm-8.093 8.5c0-1.107.25-2.16.7-3.109L6.47 17.38c-2.7-1.24-4.562-3.856-4.562-6.879ZM10 18.143c-.795 0-1.56-.11-2.286-.312l2.428-6.663 2.485 6.437c.019.038.037.072.058.106a8.533 8.533 0 0 1-2.685.432Zm1.114-11.225c.486-.024.925-.072.925-.072a.317.317 0 0 0-.05-.63s-1.31.096-2.156.096c-.795 0-2.13-.096-2.13-.096-.436-.024-.486.606-.051.63 0 0 .414.048.85.072l1.258 3.263-1.77 5.015-2.947-8.278c.486-.024.925-.072.925-.072a.317.317 0 0 0-.05-.63s-1.31.096-2.156.096c-.153 0-.33-.004-.523-.01C4.687 4.227 7.173 2.856 10 2.856c2.105 0 4.025.76 5.465 2.005-.036-.004-.069-.007-.105-.007-.795 0-1.357.655-1.357 1.357 0 .63.384 1.162.795 1.793.308.507.667 1.162.667 2.108 0 .654-.265 1.412-.617 2.47l-.805 2.547-2.929-8.212Zm2.954 10.187 2.472-6.749c.46-1.09.617-1.96.617-2.738 0-.282-.019-.542-.055-.785a7.28 7.28 0 0 1 .99 3.667c0 2.82-1.618 5.282-4.024 6.605Z" fill="#000"/></svg>