<svg width="85" height="67" viewBox="0 0 85 67" fill="none" xmlns="http://www.w3.org/2000/svg">
<path d="M16.3514 16.4782L18.3837 22.7904L16.947 23.2641L16.014 20.3662L15.4362 18.4092L15.4173 18.4154L15.4347 23.7627L14.1209 24.1959L11.0222 19.8645L11.0033 19.8707L11.6756 21.7966L12.6086 24.6945L11.1624 25.1713L9.13017 18.8591L11.4459 18.0956L13.4635 20.985L14.2443 22.2086L14.2632 22.2024L14.1944 20.7546L14.1302 17.2106L16.3514 16.4782Z" fill="#0D0C11"/>
<path d="M23.9468 14.1934C24.6105 14.1733 25.1853 14.2932 25.6713 14.5531C26.1637 14.8061 26.5468 15.1829 26.8207 15.6835C27.0945 16.1841 27.242 16.7923 27.2631 17.5081C27.2842 18.224 27.1729 18.84 26.929 19.3563C26.6852 19.8725 26.3251 20.2751 25.8486 20.5641C25.3787 20.8461 24.8118 20.9971 24.1481 21.0172C23.4844 21.0372 22.9064 20.9208 22.4139 20.6678C21.9213 20.4082 21.5381 20.028 21.2643 19.5274C20.9904 19.0268 20.843 18.4186 20.8218 17.7027C20.8007 16.9869 20.9121 16.3709 21.1559 15.8546C21.3998 15.3384 21.76 14.9391 22.2366 14.6569C22.713 14.3679 23.2831 14.2135 23.9468 14.1934ZM23.9868 15.5481C23.6682 15.5577 23.4017 15.6428 23.1872 15.8033C22.9727 15.9638 22.8136 16.1996 22.7098 16.5107C22.6059 16.8152 22.5606 17.1949 22.574 17.6498C22.5872 18.098 22.6548 18.4743 22.7767 18.7787C22.8986 19.083 23.0714 19.3088 23.2949 19.456C23.5185 19.6033 23.7896 19.6721 24.1081 19.6625C24.4267 19.6528 24.6899 19.5679 24.8978 19.4076C25.1123 19.2471 25.2714 19.0113 25.3751 18.7002C25.4789 18.389 25.5242 18.0093 25.5109 17.5611C25.4975 17.1062 25.4299 16.7299 25.3082 16.4322C25.1863 16.1279 25.0136 15.9021 24.79 15.7549C24.5731 15.6074 24.3053 15.5385 23.9868 15.5481Z" fill="#0D0C11"/>
<path d="M34.0465 14.2835C34.8241 14.3904 35.4025 14.6588 35.7817 15.0886C36.1685 15.5127 36.3215 16.0294 36.2409 16.6388C36.1523 17.3078 35.8707 17.7883 35.3959 18.0805C34.9211 18.3726 34.2949 18.4652 33.5173 18.3583L33.3473 18.426L32.0524 18.2479L31.7355 20.6423L30.065 20.4126L30.9328 13.8553L34.0465 14.2835ZM33.4187 17.2016C33.7482 17.2469 34.0041 17.2147 34.1864 17.1049C34.3687 16.9951 34.4791 16.7944 34.5176 16.503C34.5553 16.2182 34.5006 15.9982 34.3534 15.8431C34.2061 15.688 33.9678 15.5877 33.6383 15.5424L32.4324 15.3766L32.2128 17.0358L33.4187 17.2016ZM34.3698 17.6966L36.0255 21.2322L34.1474 20.974L32.8569 17.873L34.3698 17.6966Z" fill="#0D0C11"/>
<path d="M37.8082 21.6987L40.1653 15.5347L44.9488 17.417L44.4738 18.6592L41.291 17.4067L40.8124 18.6582L43.3438 19.6543L42.8974 20.8217L40.366 19.8256L39.8839 21.0864L43.1877 22.3865L42.7127 23.6286L37.8082 21.6987Z" fill="#0D0C11"/>
<path d="M49.1192 19.948L48.0546 21.7893L46.7313 23.6978L45.5341 22.9875L46.5301 20.8849L47.5948 19.0436L49.1192 19.948ZM45.8485 23.8242C46.1126 23.9809 46.2798 24.1652 46.35 24.3772C46.426 24.5926 46.3973 24.8155 46.264 25.046C46.1341 25.2708 45.9578 25.4023 45.7352 25.4405C45.5183 25.4821 45.2778 25.4246 45.0137 25.2679C44.7611 25.118 44.5968 24.9354 44.5208 24.72C44.4448 24.5046 44.4718 24.2846 44.6018 24.0598C44.7351 23.8293 44.913 23.6949 45.1356 23.6567C45.3582 23.6185 45.5958 23.6743 45.8485 23.8242Z" fill="#0D0C11"/>
<path d="M59.4146 29.4746L54.6364 33.9845L53.5994 32.8639L55.7931 30.7934L57.2968 29.4432L57.2832 29.4284L52.5079 31.6842L51.5596 30.6595L54.1108 26.0002L54.0972 25.9854L52.6616 27.4094L50.468 29.4798L49.4242 28.3518L54.2024 23.842L55.8739 25.6483L54.1508 28.7109L53.3897 29.9404L53.4033 29.9551L54.6689 29.2855L57.8114 27.7421L59.4146 29.4746Z" fill="#0D0C11"/>
<path d="M63.7008 35.46C63.9908 36.0637 64.1179 36.6423 64.0821 37.196C64.0551 37.7527 63.8714 38.2591 63.5309 38.7151C63.1905 39.171 62.701 39.5543 62.0625 39.8648C61.4239 40.1753 60.8214 40.3231 60.2547 40.3082C59.6881 40.2933 59.1766 40.125 58.7202 39.8033C58.2727 39.4847 57.9039 39.0236 57.6139 38.4199C57.3239 37.8162 57.1924 37.236 57.2194 36.6792C57.2523 36.1196 57.439 35.6117 57.7794 35.1557C58.1199 34.6998 58.6094 34.3165 59.2479 34.006C59.8864 33.6955 60.489 33.5477 61.0556 33.5626C61.6223 33.5775 62.1308 33.7473 62.5812 34.0719C63.0376 34.3936 63.4108 34.8563 63.7008 35.46ZM62.4924 36.0476C62.3532 35.7578 62.1671 35.5467 61.9341 35.4142C61.7012 35.2818 61.4228 35.231 61.099 35.2618C60.7811 35.2898 60.4193 35.4024 60.0135 35.5998C59.6137 35.7942 59.3012 36.0095 59.076 36.2456C58.8508 36.4817 58.7174 36.7327 58.6758 36.9987C58.6343 37.2646 58.6831 37.5425 58.8223 37.8323C58.9615 38.122 59.1462 38.3301 59.3762 38.4566C59.6092 38.589 59.8876 38.6399 60.2114 38.609C60.5352 38.5781 60.897 38.4655 61.2968 38.2711C61.7026 38.0737 62.0152 37.8585 62.2344 37.6253C62.4596 37.3891 62.593 37.1381 62.6345 36.8721C62.679 36.6122 62.6316 36.3374 62.4924 36.0476Z" fill="#0D0C11"/>
<path d="M67.5353 44.4213C67.7328 45.1857 67.7058 45.8247 67.4543 46.3384C67.211 46.8569 66.7934 47.1924 66.2015 47.3447C65.5517 47.5119 65.0019 47.4288 64.5522 47.0955C64.1024 46.7622 63.7787 46.2134 63.5812 45.4491L63.4542 45.316L63.1253 44.0432L60.7996 44.6417L60.3752 42.9997L66.7443 41.3609L67.5353 44.4213ZM64.6089 44.9256C64.6926 45.2495 64.8197 45.4758 64.9902 45.6047C65.1607 45.7335 65.3875 45.7615 65.6706 45.6886C65.9472 45.6175 66.129 45.4844 66.2158 45.2893C66.3026 45.0943 66.3042 44.8348 66.2205 44.511L65.9142 43.3256L64.3026 43.7403L64.6089 44.9256ZM64.5151 45.9963L61.8893 48.8583L61.4122 47.0123L63.7768 44.6527L64.5151 45.9963Z" fill="#0D0C11"/>
<path d="M61.8395 51.1736L68.4261 50.9714L68.6183 56.1157L67.291 56.1564L67.1631 52.7336L65.8258 52.7746L65.9276 55.4969L64.6801 55.5352L64.5784 52.8129L63.2311 52.8543L63.3639 56.4072L62.0366 56.448L61.8395 51.1736Z" fill="#0D0C11"/>
<path d="M67.5289 61.6033L65.4419 61.1797L63.2049 60.5317L63.469 59.1667L65.7782 59.4415L67.8652 59.8652L67.5289 61.6033ZM62.7892 59.7329C62.7309 60.034 62.6141 60.2519 62.4387 60.3863C62.2621 60.5274 62.0432 60.5714 61.7819 60.5184C61.5271 60.4666 61.3444 60.3411 61.2336 60.1417C61.1216 59.9489 61.0947 59.7019 61.1529 59.4007C61.2087 59.1127 61.3248 58.8981 61.5015 58.7571C61.6781 58.616 61.8938 58.5714 62.1486 58.6231C62.4098 58.6761 62.5959 58.8023 62.7066 59.0017C62.8174 59.2011 62.8449 59.4448 62.7892 59.7329Z" fill="#0D0C11"/>
<path d="M16.3514 16.4782L18.3837 22.7904L16.947 23.2641L16.014 20.3662L15.4362 18.4092L15.4173 18.4154L15.4347 23.7627L14.1209 24.1959L11.0222 19.8645L11.0033 19.8707L11.6756 21.7966L12.6086 24.6945L11.1624 25.1713L9.13017 18.8591L11.4459 18.0956L13.4635 20.985L14.2443 22.2086L14.2632 22.2024L14.1944 20.7546L14.1302 17.2106L16.3514 16.4782Z" fill="#0D0C11"/>
<path d="M23.9468 14.1934C24.6105 14.1733 25.1853 14.2932 25.6713 14.5531C26.1637 14.8061 26.5468 15.1829 26.8207 15.6835C27.0945 16.1841 27.242 16.7923 27.2631 17.5081C27.2842 18.224 27.1729 18.84 26.929 19.3563C26.6852 19.8725 26.3251 20.2751 25.8486 20.5641C25.3787 20.8461 24.8118 20.9971 24.1481 21.0172C23.4844 21.0372 22.9064 20.9208 22.4139 20.6678C21.9213 20.4082 21.5381 20.028 21.2643 19.5274C20.9904 19.0268 20.843 18.4186 20.8218 17.7027C20.8007 16.9869 20.9121 16.3709 21.1559 15.8546C21.3998 15.3384 21.76 14.9391 22.2366 14.6569C22.713 14.3679 23.2831 14.2135 23.9468 14.1934ZM23.9868 15.5481C23.6682 15.5577 23.4017 15.6428 23.1872 15.8033C22.9727 15.9638 22.8136 16.1996 22.7098 16.5107C22.6059 16.8152 22.5606 17.1949 22.574 17.6498C22.5872 18.098 22.6548 18.4743 22.7767 18.7787C22.8986 19.083 23.0714 19.3088 23.2949 19.456C23.5185 19.6033 23.7896 19.6721 24.1081 19.6625C24.4267 19.6528 24.6899 19.5679 24.8978 19.4076C25.1123 19.2471 25.2714 19.0113 25.3751 18.7002C25.4789 18.389 25.5242 18.0093 25.5109 17.5611C25.4975 17.1062 25.4299 16.7299 25.3082 16.4322C25.1863 16.1279 25.0136 15.9021 24.79 15.7549C24.5731 15.6074 24.3053 15.5385 23.9868 15.5481Z" fill="#0D0C11"/>
<path d="M34.0465 14.2835C34.8241 14.3904 35.4025 14.6588 35.7817 15.0886C36.1685 15.5127 36.3215 16.0294 36.2409 16.6388C36.1523 17.3078 35.8707 17.7883 35.3959 18.0805C34.9211 18.3726 34.2949 18.4652 33.5173 18.3583L33.3473 18.426L32.0524 18.2479L31.7355 20.6423L30.065 20.4126L30.9328 13.8553L34.0465 14.2835ZM33.4187 17.2016C33.7482 17.2469 34.0041 17.2147 34.1864 17.1049C34.3687 16.9951 34.4791 16.7944 34.5176 16.503C34.5553 16.2182 34.5006 15.9982 34.3534 15.8431C34.2061 15.688 33.9678 15.5877 33.6383 15.5424L32.4324 15.3766L32.2128 17.0358L33.4187 17.2016ZM34.3698 17.6966L36.0255 21.2322L34.1474 20.974L32.8569 17.873L34.3698 17.6966Z" fill="#0D0C11"/>
<path d="M37.8082 21.6987L40.1653 15.5347L44.9488 17.417L44.4738 18.6592L41.291 17.4067L40.8124 18.6582L43.3438 19.6543L42.8974 20.8217L40.366 19.8256L39.8839 21.0864L43.1877 22.3865L42.7127 23.6286L37.8082 21.6987Z" fill="#0D0C11"/>
<path d="M49.1192 19.948L48.0545 21.7893L46.7312 23.6978L45.534 22.9875L46.53 20.8849L47.5947 19.0436L49.1192 19.948ZM45.8484 23.8242C46.1125 23.9809 46.2797 24.1652 46.3499 24.3772C46.4259 24.5926 46.3973 24.8155 46.264 25.046C46.134 25.2708 45.9577 25.4023 45.7351 25.4405C45.5183 25.4821 45.2778 25.4246 45.0136 25.2679C44.761 25.118 44.5967 24.9354 44.5207 24.72C44.4447 24.5046 44.4717 24.2846 44.6017 24.0598C44.735 23.8293 44.9129 23.6949 45.1355 23.6567C45.3581 23.6185 45.5958 23.6743 45.8484 23.8242Z" fill="#0D0C11"/>
<path d="M59.4146 29.4746L54.6364 33.9845L53.5994 32.8639L55.7931 30.7934L57.2968 29.4432L57.2832 29.4284L52.5079 31.6842L51.5596 30.6595L54.1108 26.0002L54.0972 25.9854L52.6616 27.4094L50.468 29.4798L49.4242 28.3518L54.2024 23.842L55.8739 25.6483L54.1508 28.7109L53.3897 29.9404L53.4033 29.9551L54.6689 29.2855L57.8114 27.7421L59.4146 29.4746Z" fill="#0D0C11"/>
<path d="M63.7008 35.46C63.9908 36.0637 64.1179 36.6423 64.0821 37.196C64.0551 37.7527 63.8714 38.2591 63.5309 38.7151C63.1905 39.171 62.701 39.5543 62.0625 39.8648C61.4239 40.1753 60.8214 40.3231 60.2547 40.3082C59.6881 40.2933 59.1766 40.125 58.7202 39.8033C58.2727 39.4847 57.9039 39.0236 57.6139 38.4199C57.3239 37.8162 57.1924 37.236 57.2194 36.6792C57.2523 36.1196 57.439 35.6117 57.7794 35.1557C58.1199 34.6998 58.6094 34.3165 59.2479 34.006C59.8864 33.6955 60.489 33.5477 61.0556 33.5626C61.6223 33.5775 62.1308 33.7473 62.5812 34.0719C63.0376 34.3936 63.4108 34.8563 63.7008 35.46ZM62.4924 36.0476C62.3532 35.7578 62.1671 35.5467 61.9341 35.4142C61.7012 35.2818 61.4228 35.231 61.099 35.2618C60.7811 35.2898 60.4193 35.4024 60.0135 35.5998C59.6137 35.7942 59.3012 36.0095 59.076 36.2456C58.8508 36.4817 58.7174 36.7327 58.6758 36.9987C58.6343 37.2646 58.6831 37.5425 58.8223 37.8323C58.9615 38.122 59.1462 38.3301 59.3762 38.4566C59.6092 38.589 59.8876 38.6399 60.2114 38.609C60.5352 38.5781 60.897 38.4655 61.2968 38.2711C61.7026 38.0737 62.0152 37.8585 62.2344 37.6253C62.4596 37.3891 62.593 37.1381 62.6345 36.8721C62.679 36.6122 62.6316 36.3374 62.4924 36.0476Z" fill="#0D0C11"/>
<path d="M67.5353 44.4213C67.7328 45.1857 67.7058 45.8247 67.4543 46.3384C67.211 46.8569 66.7934 47.1924 66.2015 47.3447C65.5517 47.5119 65.0019 47.4288 64.5522 47.0955C64.1024 46.7622 63.7787 46.2134 63.5812 45.4491L63.4542 45.316L63.1253 44.0432L60.7996 44.6417L60.3752 42.9997L66.7443 41.3609L67.5353 44.4213ZM64.6089 44.9256C64.6926 45.2495 64.8197 45.4758 64.9902 45.6047C65.1607 45.7335 65.3875 45.7615 65.6706 45.6886C65.9472 45.6175 66.129 45.4844 66.2158 45.2893C66.3026 45.0943 66.3042 44.8348 66.2205 44.511L65.9142 43.3256L64.3026 43.7403L64.6089 44.9256ZM64.5151 45.9963L61.8893 48.8583L61.4122 47.0123L63.7768 44.6527L64.5151 45.9963Z" fill="#0D0C11"/>
<path d="M61.8395 51.1736L68.4261 50.9714L68.6183 56.1157L67.291 56.1564L67.1631 52.7336L65.8258 52.7746L65.9276 55.4969L64.6801 55.5352L64.5784 52.8129L63.2311 52.8543L63.3639 56.4072L62.0366 56.448L61.8395 51.1736Z" fill="#0D0C11"/>
<path d="M67.5289 61.6033L65.4419 61.1797L63.2049 60.5317L63.469 59.1667L65.7782 59.4415L67.8652 59.8652L67.5289 61.6033ZM62.7892 59.7329C62.7309 60.034 62.6141 60.2519 62.4387 60.3863C62.2621 60.5274 62.0432 60.5714 61.7819 60.5184C61.5271 60.4666 61.3444 60.3411 61.2336 60.1417C61.1216 59.9489 61.0947 59.7019 61.1529 59.4007C61.2087 59.1127 61.3248 58.8981 61.5015 58.7571C61.6781 58.616 61.8938 58.5714 62.1486 58.6231C62.4098 58.6761 62.5959 58.8023 62.7066 59.0017C62.8174 59.2011 62.8449 59.4448 62.7892 59.7329Z" fill="#0D0C11"/>
</svg>
