<svg width="80" height="79" fill="none" xmlns="http://www.w3.org/2000/svg"><path d="M11.068 15.228l4.595 4.781-1.053 1.086L12.5 18.9l-1.378-1.506-.014.014 2.393 4.83-.963.993-4.653-2.502-.014.015 1.448 1.434 2.11 2.195-1.06 1.093-4.595-4.78 1.697-1.75 3.06 1.69 1.232.75.014-.014-.705-1.278-1.632-3.177 1.628-1.679zM16.786 9.618c.58-.325 1.142-.482 1.688-.473.548 0 1.053.162 1.517.485.464.324.863.802 1.197 1.435.335.633.508 1.238.52 1.814a2.85 2.85 0 01-.426 1.583c-.292.47-.728.867-1.307 1.191-.58.325-1.143.487-1.691.487a2.657 2.657 0 01-1.522-.494c-.464-.324-.863-.802-1.198-1.435-.334-.633-.507-1.238-.519-1.814-.011-.576.132-1.101.43-1.574.295-.48.732-.881 1.311-1.205zm.633 1.198a1.394 1.394 0 00-.596.598c-.12.243-.156.528-.11.855.041.322.169.684.381 1.086.21.397.435.703.678.92.242.218.495.34.758.37.263.029.534-.034.812-.19.278-.155.474-.353.587-.593.12-.243.157-.528.111-.856-.045-.327-.172-.689-.382-1.085-.212-.403-.438-.71-.677-.92-.243-.218-.495-.34-.758-.37-.258-.032-.525.03-.804.185zM25.765 5.05c.74-.262 1.374-.288 1.902-.078.532.201.897.593 1.095 1.175.217.639.18 1.198-.114 1.677-.294.48-.81.85-1.55 1.112l-.122.138-1.232.436.778 2.287-1.59.562-2.13-6.262 2.963-1.048zm.733 2.897c.313-.111.527-.257.64-.44.114-.181.124-.411.03-.69-.093-.272-.24-.443-.44-.514-.2-.071-.456-.051-.77.06l-1.147.406.54 1.584 1.147-.406zm1.066.005l3.04 2.4-1.787.633-2.523-2.18 1.27-.853zM32.378 9.943l-.66-6.566 5.117-.491.133 1.323-3.405.327.134 1.333 2.708-.26.125 1.244-2.708.26.135 1.343 3.534-.34.133 1.324-5.246.503zM41.623 3.277L41.508 5.4l-.317 2.3-1.388-.097-.064-2.326.116-2.124 1.768.123zM40.462 8.21c.306.02.538.11.697.268.165.159.24.37.226.637-.014.259-.112.455-.293.59-.174.134-.415.191-.721.17-.293-.02-.522-.11-.688-.268-.165-.159-.24-.367-.226-.627.014-.265.112-.466.293-.6.181-.134.419-.19.712-.17zM55.012 7.233l-2.175 6.201-1.426-.546.999-2.846.715-1.89-.018-.007-3.197 4.169-1.304-.499.138-5.339-.019-.007-.622 1.925-.998 2.847-1.436-.55 2.175-6.2 2.299.88-.132 3.53-.114 1.447.019.008.814-1.17 2.077-2.796 2.205.843zM61.418 10.701c.526.415.897.882 1.114 1.4.226.516.291 1.058.196 1.625-.095.568-.353 1.137-.775 1.708-.422.57-.886.978-1.39 1.222a2.624 2.624 0 01-1.576.239c-.536-.086-1.067-.336-1.593-.751s-.901-.88-1.127-1.397a2.879 2.879 0 01-.19-1.634c.094-.568.353-1.137.775-1.708.422-.57.885-.978 1.39-1.221a2.567 2.567 0 011.57-.232c.545.085 1.08.334 1.606.75zm-.799 1.08c-.252-.198-.51-.305-.774-.32-.265-.014-.532.067-.803.242-.267.17-.534.435-.803.798-.264.358-.442.694-.534 1.01-.093.317-.097.604-.014.864.082.26.25.49.502.688.252.2.508.304.767.314.264.015.532-.066.802-.24.271-.175.539-.442.803-.799.268-.363.447-.7.535-1.01.092-.316.097-.604.014-.864-.078-.255-.242-.483-.495-.682zM68.789 17.077c.513.6.772 1.19.778 1.77.016.58-.203 1.075-.657 1.484-.498.45-1.02.627-1.564.532-.544-.095-1.072-.442-1.585-1.043l-.17-.061-.855-1-1.783 1.608-1.102-1.289 4.884-4.404 2.054 2.403zm-2.355 1.799c.218.254.43.4.637.438.208.039.42-.04.637-.236.212-.191.313-.395.303-.611-.01-.216-.123-.451-.34-.706l-.796-.93-1.236 1.114.795.93zm.392 1.01l-1.044 3.792-1.239-1.45 1.037-3.217 1.246.876zM66.753 25.857l5.75-3.22 2.439 4.533-1.159.648-1.623-3.016-1.167.654 1.29 2.399-1.088.61-1.29-2.4-1.177.66 1.685 3.13-1.159.649-2.5-4.648zM76.442 32.681l-2.05.578-2.282.447-.37-1.34 2.18-.813 2.05-.578.472 1.706zm-5.058.502c.082.295.075.544-.022.744-.095.207-.27.347-.527.419-.25.07-.47.042-.656-.085-.186-.121-.32-.33-.401-.625-.079-.283-.07-.528.025-.734.094-.207.267-.346.517-.417.257-.072.479-.044.666.083.187.127.32.332.398.615z" fill="#0D0C11"/><path d="M11.068 15.228l4.595 4.781-1.053 1.086L12.5 18.9l-1.378-1.506-.014.014 2.393 4.83-.963.993-4.653-2.502-.014.015 1.448 1.434 2.11 2.195-1.06 1.093-4.595-4.78 1.697-1.75 3.06 1.69 1.232.75.014-.014-.705-1.278-1.632-3.177 1.628-1.679zM16.787 9.618c.58-.325 1.142-.482 1.687-.473.548 0 1.054.162 1.518.485.463.324.862.802 1.197 1.435.334.633.507 1.238.519 1.814a2.85 2.85 0 01-.425 1.583c-.292.47-.728.867-1.308 1.191-.58.325-1.143.487-1.69.487a2.657 2.657 0 01-1.523-.494c-.464-.324-.863-.802-1.197-1.435-.335-.633-.508-1.238-.52-1.814-.01-.576.132-1.101.43-1.574.295-.48.732-.881 1.312-1.205zm.633 1.198a1.395 1.395 0 00-.596.598c-.12.243-.157.528-.111.855.042.322.17.684.382 1.086.21.397.435.703.677.92.243.218.495.34.759.37.263.029.533-.034.811-.19.279-.155.474-.353.588-.593.12-.243.156-.528.11-.856-.044-.327-.172-.689-.381-1.085-.213-.403-.439-.71-.678-.92-.242-.218-.495-.34-.758-.37-.257-.032-.525.03-.803.185zM25.765 5.05c.74-.262 1.374-.288 1.902-.078.532.201.897.593 1.095 1.175.217.639.18 1.198-.114 1.677-.294.48-.81.85-1.55 1.112l-.122.138-1.232.436.778 2.287-1.59.562-2.13-6.262 2.963-1.048zm.733 2.897c.313-.111.527-.257.64-.44.114-.181.124-.411.03-.69-.093-.272-.24-.443-.44-.514-.2-.071-.456-.051-.77.06l-1.147.406.54 1.584 1.147-.406zm1.066.005l3.04 2.4-1.787.633-2.523-2.18 1.27-.853zM32.378 9.943l-.66-6.566 5.117-.491.133 1.323-3.405.327.134 1.333 2.708-.26.125 1.244-2.708.26.135 1.343 3.534-.34.133 1.324-5.246.503zM41.623 3.277L41.508 5.4l-.317 2.3-1.388-.097-.064-2.326.116-2.124 1.768.123zM40.462 8.21c.306.02.538.11.697.268.165.159.24.37.226.637-.014.259-.112.455-.293.59-.174.134-.415.191-.721.17-.293-.02-.522-.11-.688-.268-.165-.159-.24-.367-.226-.627.014-.265.112-.466.293-.6.181-.134.419-.19.712-.17zM55.012 7.233l-2.175 6.201-1.426-.546.999-2.846.715-1.89-.018-.007-3.197 4.169-1.304-.499.138-5.339-.019-.007-.622 1.925-.998 2.847-1.436-.55 2.175-6.2 2.299.88-.132 3.53-.114 1.447.019.008.814-1.17 2.077-2.796 2.205.843zM61.418 10.701c.526.415.897.882 1.114 1.4.226.516.291 1.058.196 1.625-.095.568-.353 1.137-.775 1.708-.422.57-.886.978-1.39 1.222a2.624 2.624 0 01-1.576.239c-.536-.086-1.067-.336-1.593-.751s-.901-.88-1.127-1.397a2.879 2.879 0 01-.19-1.634c.094-.568.353-1.137.775-1.708.422-.57.885-.978 1.39-1.221a2.567 2.567 0 011.57-.232c.545.085 1.08.334 1.606.75zm-.799 1.08c-.252-.198-.51-.305-.774-.32-.265-.014-.532.067-.803.242-.267.17-.534.435-.803.798-.264.358-.442.694-.534 1.01-.093.317-.097.604-.014.864.082.26.25.49.502.688.252.2.508.304.767.314.264.015.532-.066.802-.24.271-.175.539-.442.803-.799.268-.363.447-.7.535-1.01.092-.316.097-.604.014-.864-.078-.255-.242-.483-.495-.682zM68.789 17.077c.513.6.772 1.19.778 1.77.016.58-.203 1.075-.657 1.484-.498.45-1.02.627-1.564.532-.544-.095-1.072-.442-1.585-1.043l-.17-.061-.855-1-1.783 1.608-1.102-1.289 4.884-4.404 2.054 2.403zm-2.355 1.799c.218.254.43.4.637.438.208.039.42-.04.637-.236.212-.191.313-.395.303-.611-.01-.216-.123-.451-.34-.706l-.796-.93-1.236 1.114.795.93zm.392 1.01l-1.044 3.792-1.239-1.45 1.037-3.217 1.246.876zM66.753 25.857l5.75-3.22 2.439 4.533-1.159.648-1.623-3.016-1.167.654 1.29 2.399-1.088.61-1.29-2.4-1.177.66 1.685 3.13-1.159.649-2.5-4.648zM76.442 32.681l-2.05.578-2.282.447-.37-1.34 2.18-.813 2.05-.578.472 1.706zm-5.058.502c.082.295.075.544-.022.744-.095.207-.27.347-.527.419-.25.07-.47.042-.656-.085-.186-.121-.32-.33-.401-.625-.079-.283-.07-.528.025-.734.094-.207.267-.346.517-.417.257-.072.479-.044.666.083.187.127.32.332.398.615z" fill="#0D0C11"/></svg>