<svg width="107" height="71" fill="none" xmlns="http://www.w3.org/2000/svg"><path d="M66.4 69.56l.133-10.078a3 3 0 012.963-2.957l7.178-.094a3 3 0 002.963-2.957l.095-7.161a3 3 0 012.964-2.957l7.034-.092a3 3 0 002.963-3.1l-.255-7.371a3 3 0 013.105-3.098l10.455.36M2 32.775l6.3-1.023a3 3 0 013.43 2.396l.646 3.392a3 3 0 003.43 2.396l3.416-.554a3 3 0 013.43 2.396l.62 3.252a3 3 0 003.57 2.37l3.414-.722a3 3 0 013.595 2.511l.915 6.476" stroke="#0D0C11" stroke-width="2" stroke-linecap="round"/><path d="M48.197 30.052l5.777-1.614a1.001 1.001 0 011.233.694l1.615 5.756a.999.999 0 01-.693 1.232l-5.777 1.614a1.001 1.001 0 01-1.233-.694l-1.615-5.756a.998.998 0 01.693-1.232z" fill="#79CAAD" stroke="#0D0C11" stroke-width="2"/><path d="M72.614 6.862l2.46 9.177-9.196-2.463 6.736-6.714z" fill="#FFE18F" stroke="#0D0C11" stroke-width="2"/><path d="M38 5.986a4.993 4.993 0 01-5 4.986c-2.764 0-5-2.234-5-4.986A4.993 4.993 0 0133 1c2.764 0 5 2.235 5 4.986z" fill="#E39FCC" stroke="#0D0C11" stroke-width="2"/></svg>